<svg xmlns="http://www.w3.org/2000/svg" width="512" height="512" enable-background="new 0 0 512 512" viewBox="0 0 512 512" id="search">
  <path d="M258.201,501.123c-17.764-0.001-32.299-14.44-32.403-32.188c-0.088-15.838-0.21-31.687-0.333-47.536
				c-0.25-32.33-0.509-65.761-0.453-98.546c0.005-2.747,2.226-4.977,4.973-4.991l54.807-0.292c0.009,0,0.019,0,0.026,0
				c1.324,0,2.593,0.524,3.53,1.459c0.944,0.94,1.474,2.22,1.47,3.552c-0.07,32.142,0.185,64.967,0.43,96.712
				c0.127,16.421,0.255,32.844,0.34,49.252c0.061,8.607-3.263,16.751-9.357,22.922c-6.104,6.18-14.219,9.609-22.852,9.656H258.201z
				 M235.006,327.836c-0.024,31.145,0.221,62.81,0.458,93.486c0.123,15.856,0.246,31.713,0.333,47.557
				c0.072,12.265,10.122,22.244,22.403,22.244h0.123c5.959-0.032,11.567-2.406,15.791-6.684c4.216-4.269,6.515-9.892,6.473-15.833
				c-0.085-16.409-0.212-32.823-0.339-49.236c-0.233-30.113-0.474-61.199-0.438-91.773L235.006,327.836z"></path>
  <path d="M243.06,327.775c-2.75,0-4.986-2.223-5-4.975l-0.136-27.285c-31.043-4.027-59.191-17.796-81.645-39.989
					c-27.06-26.741-42.079-62.424-42.292-100.474c-0.195-38.067,14.434-73.914,41.192-100.939
					c26.744-27.041,62.44-42.058,100.513-42.282l0.819-0.002c37.763,0,73.339,14.629,100.175,41.192
					c27.067,26.743,42.089,62.427,42.296,100.475c0.194,38.02-14.432,73.856-41.184,100.912
					c-22.213,22.451-50.213,36.527-81.22,40.884l0.161,27.331c0.008,1.327-0.512,2.604-1.445,3.547
					c-0.935,0.943-2.205,1.477-3.533,1.482l-28.68,0.123C243.075,327.775,243.067,327.775,243.06,327.775z M256.511,21.829
					l-0.762,0.002c-35.401,0.209-68.594,14.172-93.461,39.315c-24.881,25.129-38.482,58.459-38.301,93.853
					c0.198,35.375,14.163,68.552,39.322,93.415c21.882,21.629,49.574,34.651,80.083,37.662c2.549,0.251,4.496,2.389,4.509,4.95
					l0.134,26.728l18.675-0.08l-0.158-26.764c-0.016-2.563,1.909-4.721,4.457-5c30.482-3.332,58.034-16.657,79.679-38.534
					c24.875-25.156,38.475-58.479,38.294-93.827C388.79,118.177,374.823,85,349.654,60.132
					C324.7,35.431,291.623,21.829,256.511,21.829z M256.428,268.285c-30.205,0-58.689-11.706-80.206-32.963
					c-21.638-21.395-33.662-49.956-33.859-80.425c-0.147-30.448,11.568-59.152,32.988-80.833
					C196.8,52.418,225.389,40.4,255.857,40.222l0.661-0.002c30.242,0,58.725,11.71,80.205,32.973
					c21.662,21.395,33.689,49.96,33.861,80.432c0.172,30.454-11.545,59.156-32.991,80.82
					c-21.452,21.691-50.039,33.709-80.493,33.839L256.428,268.285z M256.518,50.22l-0.604,0.002
					c-27.8,0.163-53.888,11.129-73.455,30.877c-19.541,19.777-30.231,45.969-30.097,73.742
					c0.179,27.793,11.149,53.852,30.888,73.369c19.631,19.394,45.62,30.075,73.177,30.075l0.621-0.002
					c27.786-0.118,53.863-11.082,73.436-30.872c19.567-19.767,30.256-45.95,30.1-73.73c-0.156-27.799-11.128-53.857-30.893-73.377
					C310.093,60.902,284.107,50.22,256.518,50.22z"></path>
</svg>
